<svg width="454" height="9" viewBox="0 0 454 9" fill="none" xmlns="http://www.w3.org/2000/svg">
<path d="M56.1448 1C139.013 1 221.841 3.38165 304.7 4C360.736 4.41818 192.626 4 136.589 4C96.2929 4 55.9966 4 15.7003 4C10.1351 4 -6.87297 4.16675 10.1448 3.77778C125.41 1.14314 240.855 3 356.145 3C359.96 3 363.774 3 367.589 3C370.764 3 367.814 3.30254 367.034 3.44444C336.808 8.94001 304.108 6.73375 273.7 6.88889C188.516 7.3235 -67.0404 7 18.1448 7C137.571 7 256.997 7 376.423 7C396.256 7 416.089 7 435.923 7C441.441 7 446.869 7.31894 452.145 6" stroke="#43E748" stroke-width="2" stroke-linecap="round"/>
</svg>
