<svg width="110" height="43" viewBox="0 0 110 43" fill="none" xmlns="http://www.w3.org/2000/svg">
<path d="M5.616 19H1.848L1.848 1.24L5.616 1.24L10.896 14.488L16.2 1.24L20.016 1.24L20.016 19H16.248V15.28C16.248 11.44 16.248 10.6 16.44 9.28L12.672 19L9.12 19L5.376 9.28C5.592 10.6 5.616 12.088 5.616 14.032L5.616 19ZM22.8987 12.328L22.8987 1.24L26.7867 1.24L26.7867 12.064C26.7867 14.296 28.0107 15.52 30.1947 15.52C32.4027 15.52 33.6507 14.248 33.6507 12.064V1.24L37.5387 1.24V12.328C37.5387 16.552 34.6587 19.288 30.1947 19.288C25.7547 19.288 22.8987 16.576 22.8987 12.328ZM39.4319 6.4C39.4319 3.184 42.1439 0.904 45.9599 0.904C49.7759 0.904 52.1759 3.016 52.1759 6.376L48.3119 6.376C48.3119 5.128 47.3759 4.36 45.9119 4.36C44.3279 4.36 43.3199 5.08 43.3199 6.256C43.3199 7.336 43.8719 7.864 45.1199 8.128L47.7839 8.68C50.9519 9.328 52.4639 10.84 52.4639 13.648C52.4639 17.08 49.7759 19.312 45.6959 19.312C41.7359 19.312 39.1679 17.176 39.1679 13.84H43.0319C43.0319 15.136 43.9919 15.856 45.7199 15.856C47.4719 15.856 48.5759 15.16 48.5759 14.032C48.5759 13.048 48.1199 12.544 46.9439 12.304L44.2319 11.752C41.0639 11.104 39.4319 9.304 39.4319 6.4ZM52.7421 4.84V1.24L66.7101 1.24V4.84L61.6701 4.84V19H57.7821V4.84H52.7421ZM69.1969 19H65.1409L71.4769 1.24L75.2689 1.24L81.5809 19H77.4529L76.2049 15.256H70.4689L69.1969 19ZM72.8689 8.2L71.5969 11.992L75.1009 11.992L73.8289 8.2C73.6369 7.6 73.4209 6.904 73.3489 6.472C73.2769 6.88 73.0849 7.552 72.8689 8.2ZM93.0794 12.064H86.8394V19H82.9514V1.24L94.2554 1.24V4.84L86.8394 4.84V8.56H93.0794V12.064ZM97.5696 19H93.5136L99.8496 1.24L103.642 1.24L109.954 19H105.826L104.578 15.256L98.8416 15.256L97.5696 19ZM101.242 8.2L99.9696 11.992H103.474L102.202 8.2C102.01 7.6 101.794 6.904 101.722 6.472C101.65 6.88 101.458 7.552 101.242 8.2ZM0.48 28.84L0.48 25.24L14.448 25.24L14.448 28.84L9.408 28.84L9.408 43H5.52L5.52 28.84H0.48ZM17.6314 43H13.5754L19.9114 25.24H23.7034L30.0154 43H25.8874L24.6394 39.256L18.9034 39.256L17.6314 43ZM21.3034 32.2L20.0314 35.992L23.5354 35.992L22.2634 32.2C22.0714 31.6 21.8554 30.904 21.7834 30.472C21.7114 30.88 21.5194 31.552 21.3034 32.2ZM35.9704 25.24V43H32.0824V25.24L35.9704 25.24ZM39.6761 43V25.24H47.0681C50.6441 25.24 52.8041 27.112 52.8041 30.16C52.8041 32.056 51.9401 33.448 50.3321 34.144C52.0841 34.72 53.0201 36.088 53.0201 38.104C53.0201 41.248 50.9081 43 47.0681 43H39.6761ZM46.6601 28.648H43.5641V32.512H46.6601C48.0521 32.512 48.8201 31.816 48.8201 30.544C48.8201 29.296 48.0761 28.648 46.6601 28.648ZM46.8521 35.776H43.5641V39.592H46.8521C48.2921 39.592 49.0361 38.944 49.0361 37.624C49.0361 36.424 48.2681 35.776 46.8521 35.776ZM57.8267 43H53.7707L60.1067 25.24H63.8987L70.2107 43L66.0827 43L64.8347 39.256H59.0987L57.8267 43ZM61.4987 32.2L60.2267 35.992H63.7307L62.4587 32.2C62.2667 31.6 62.0507 30.904 61.9787 30.472C61.9067 30.88 61.7147 31.552 61.4987 32.2ZM76.1657 43H72.2777L72.2777 25.24H76.1657V32.248H83.0297V25.24H86.9177L86.9177 43H83.0297L83.0297 35.848H76.1657L76.1657 43Z" fill="white"/>
</svg>
